<svg width="420" height="420" viewBox="0 0 420 420" fill="none" xmlns="http://www.w3.org/2000/svg">
<g>
<rect width="420" height="420" fill="transparent"/>
<circle cx="210" cy="210" r="200" stroke="#797AAE"/>
<path d="M319.5 210C319.5 265.161 307.202 315.074 287.344 351.18C267.475 387.304 240.109 409.5 210 409.5C179.891 409.5 152.525 387.304 132.656 351.18C112.798 315.074 100.5 265.161 100.5 210C100.5 154.839 112.798 104.925 132.656 68.8196C152.525 32.6957 179.891 10.5 210 10.5C240.109 10.5 267.475 32.6957 287.344 68.8196C307.202 104.925 319.5 154.839 319.5 210Z" stroke="#00AEFF"/>
<path d="M210 319.5C154.839 319.5 104.925 307.202 68.8196 287.344C32.6957 267.475 10.5 240.109 10.5 210C10.5 179.891 32.6957 152.524 68.8196 132.656C104.926 112.798 154.839 100.5 210 100.5C265.161 100.5 315.075 112.798 351.18 132.656C387.304 152.525 409.5 179.891 409.5 210C409.5 240.109 387.304 267.476 351.18 287.344C315.074 307.202 265.161 319.5 210 319.5Z" stroke="#00AEFF"/>
<path d="M287.428 132.572C326.433 171.576 353.031 215.567 364.52 255.139C376.014 294.732 372.358 329.777 351.068 351.068C329.777 372.358 294.732 376.014 255.139 364.52C215.567 353.031 171.576 326.433 132.572 287.428C93.5673 248.424 66.969 204.433 55.4802 164.861C43.9856 125.268 47.6419 90.2225 68.9322 68.9322C90.2225 47.6419 125.268 43.9856 164.861 55.4802C204.433 66.969 248.424 93.5673 287.428 132.572Z" stroke="#00AEFF"/>
<path d="M287.428 287.428C248.424 326.433 204.433 353.031 164.861 364.52C125.268 376.014 90.2225 372.358 68.9322 351.068C47.6419 329.777 43.9856 294.732 55.4802 255.139C66.969 215.567 93.5673 171.576 132.572 132.572C171.576 93.5673 215.567 66.969 255.139 55.4802C294.732 43.9856 329.777 47.6419 351.068 68.9322C372.358 90.2225 376.014 125.268 364.52 164.861C353.031 204.433 326.433 248.424 287.428 287.428Z" stroke="#00AEFF"/>
</g>
</svg>
